<svg width="194" height="125" viewBox="0 0 194 125" fill="none" xmlns="http://www.w3.org/2000/svg">
<g id="logo with name 2" clip-path="url(#clip0_13581_1661)">
<g id="Layer 2">
<g id="Layer 1">
<path id="Vector" d="M76.1506 29.93C80.3915 26.0047 80.3927 19.6416 76.1533 15.7177C71.9139 11.7938 65.0393 11.7949 60.7984 15.7202L37.7727 37.0324C33.5318 40.9577 33.5306 47.3207 37.77 51.2446C42.0094 55.1686 48.8841 55.1675 53.1249 51.2422L76.1506 29.93Z" fill="url(#paint0_linear_13581_1661)"/>
<path id="Vector_2" d="M162.399 85.8115C160.28 85.8119 158.207 85.2305 156.445 84.1407C154.682 83.0509 153.308 81.5017 152.497 79.6892C151.686 77.8766 151.474 75.8821 151.887 73.9579C152.301 72.0337 153.322 70.2663 154.821 68.8792L165.264 59.2137C169.874 54.8719 172.444 49.0206 172.415 42.9333C172.386 36.846 169.761 31.0156 165.111 26.7113C160.46 22.4069 154.161 19.9769 147.584 19.9504C141.008 19.9239 134.686 22.3029 129.995 26.5696L79.5703 73.2421C70.8567 81.2084 59.0915 85.6597 46.8439 85.6241C34.5964 85.5885 22.8616 81.0688 14.2023 73.0519C5.54289 65.0351 0.662498 54.1725 0.626845 42.8364C0.591191 31.5003 5.40318 20.6116 14.012 12.5482L24.3334 2.99488C26.3432 1.1346 29.0692 0.0895064 31.9115 0.0895064C34.7539 0.0895064 37.4798 1.1346 39.4896 2.99488C41.4995 4.85516 42.6286 7.37824 42.6286 10.0091C42.6286 12.6399 41.4995 15.163 39.4896 17.0233L29.1606 26.5696C24.656 30.929 22.174 36.7473 22.2459 42.7793C22.3178 48.8112 24.9378 54.5774 29.5452 58.8438C34.1526 63.1102 40.3814 65.5378 46.8982 65.6069C53.4151 65.676 59.7022 63.3812 64.4141 59.2137L114.839 12.5482C123.535 4.50064 135.328 -0.0200668 147.625 -0.0194091C159.921 -0.0187514 171.714 4.50322 180.409 12.5517C189.103 20.6002 193.987 31.516 193.987 42.8976C193.986 54.2793 189.1 65.1945 180.405 73.2421L169.977 82.9076C168.983 83.8298 167.802 84.561 166.501 85.0594C165.201 85.5577 163.807 85.8133 162.399 85.8115Z" fill="url(#paint1_linear_13581_1661)"/>
<path id="Vector_3" d="M118.213 55.9205C113.972 59.8458 113.971 66.2089 118.21 70.1328C122.45 74.0567 129.325 74.0556 133.565 70.1303L156.591 48.8181C160.832 44.8928 160.833 38.5298 156.594 34.6058C152.354 30.6819 145.48 30.683 141.239 34.6083L118.213 55.9205Z" fill="url(#paint2_linear_13581_1661)"/>
<path id="Vector_4" d="M7.40383 106.784C7.15475 106.974 6.95666 107.214 6.82516 107.487C6.69366 107.76 6.63233 108.057 6.64602 108.355C6.64021 108.668 6.72328 108.976 6.88689 109.249C7.05049 109.523 7.28888 109.751 7.57812 109.912C8.97115 110.561 10.4521 111.033 11.981 111.315C13.9424 111.676 15.7805 112.47 17.3387 113.63C18.6119 114.675 19.2409 116.211 19.2409 118.217C19.2729 119.155 19.0691 120.086 18.6457 120.938C18.2222 121.79 17.5906 122.54 16.8007 123.127C14.9654 124.441 12.6846 125.108 10.3669 125.007C6.48667 124.987 2.76761 123.568 0 121.051L3.22828 117.39C5.83516 119.508 8.25005 120.567 10.473 120.567C11.3018 120.61 12.1236 120.404 12.8146 119.978C13.0815 119.791 13.2958 119.548 13.4396 119.268C13.5834 118.988 13.6523 118.681 13.6406 118.372C13.6478 118.055 13.569 117.742 13.4114 117.462C13.2538 117.181 13.0226 116.942 12.7388 116.765C11.6254 116.193 10.4205 115.788 9.16953 115.566C6.36057 114.944 4.31448 114.135 3.03125 113.139C1.72023 112.143 1.06852 110.586 1.06852 108.453C1.01853 107.51 1.21813 106.57 1.64999 105.714C2.08184 104.859 2.73289 104.113 3.54656 103.544C5.34507 102.345 7.52348 101.736 9.73789 101.811C11.3916 101.815 13.0332 102.074 14.5955 102.576C16.1399 103.055 17.5741 103.797 18.8241 104.764L16.0884 108.418C14.2399 107.029 11.9442 106.249 9.56359 106.202C8.79198 106.154 8.02686 106.36 7.40383 106.784Z" fill="white"/>
<path id="Vector_5" d="M30.6156 118.947C31.0631 119.435 31.6199 119.827 32.2474 120.095C32.8748 120.364 33.558 120.503 34.2494 120.503C34.9408 120.503 35.6239 120.364 36.2513 120.095C36.8788 119.827 37.4356 119.435 37.8831 118.947C38.8368 117.711 39.3073 116.212 39.2168 114.696V102.309H44.6276V114.857C44.6276 118.131 43.6551 120.628 41.71 122.349C40.7203 123.223 39.5511 123.906 38.2716 124.355C36.9921 124.804 35.6283 125.012 34.2607 124.965C32.8886 125.011 31.5204 124.802 30.237 124.35C28.9537 123.898 27.7811 123.213 26.7887 122.335C24.8335 120.581 23.856 118.089 23.856 114.857V102.309H29.2667V114.696C29.1739 116.215 29.6504 117.716 30.6156 118.947Z" fill="white"/>
<path id="Vector_6" d="M67.2862 104.315C68.9837 105.648 69.8324 107.701 69.8324 110.474C69.8324 113.247 68.9609 115.274 67.218 116.555C65.4649 117.841 62.7999 118.484 59.223 118.484H55.9948V124.74H50.5916V102.295H59.1548C62.8782 102.304 65.5887 102.978 67.2862 104.315ZM63.3152 113.139C64.0203 112.299 64.3657 111.247 64.2852 110.186C64.3402 109.665 64.2531 109.14 64.032 108.658C63.8109 108.177 63.4629 107.754 63.0197 107.429C61.831 106.808 60.4709 106.525 59.1094 106.616H55.9948V114.156H59.6398C61.4434 114.149 62.6635 113.812 63.3152 113.139Z" fill="white"/>
<path id="Vector_7" d="M91.8848 102.309V106.77H79.8204V111.392H90.6723V115.657H79.8204V120.315H92.2637V124.74H74.4096V102.295L91.8848 102.309Z" fill="white"/>
<path id="Vector_8" d="M117.09 109.751C117.09 113.347 115.554 115.669 112.482 116.716L118.62 124.74H111.959L106.586 117.586H102.843V124.74H97.4319V102.295H106.624C110.388 102.295 113.073 102.882 114.68 104.056C116.286 105.229 117.09 107.128 117.09 109.751ZM110.572 112.417C110.936 112.069 111.214 111.652 111.388 111.196C111.562 110.74 111.627 110.254 111.58 109.772C111.58 108.559 111.232 107.731 110.542 107.282C109.852 106.833 108.632 106.581 106.897 106.581H102.843V113.223H106.798C108.64 113.251 109.883 112.971 110.572 112.417Z" fill="white"/>
<path id="Vector_9" d="M141.506 105.248C143.82 107.207 144.975 109.929 144.969 113.413C144.964 116.896 143.838 119.655 141.59 121.689C139.336 123.723 135.898 124.74 131.276 124.74H122.985V102.295H131.549C135.878 102.304 139.197 103.289 141.506 105.248ZM137.535 118.575C138.862 117.418 139.528 115.769 139.528 113.532C139.528 111.294 138.862 109.632 137.535 108.446C136.209 107.261 134.163 106.665 131.412 106.665H128.381V120.307H131.859C134.299 120.315 136.202 119.732 137.535 118.582V118.575Z" fill="white"/>
<path id="Vector_10" d="M167.477 102.309V106.77H155.405V111.392H166.256V115.657H155.405V120.315H167.855V124.74H150.001V102.295L167.477 102.309Z" fill="white"/>
<path id="Vector_11" d="M181.966 116.59L188.142 102.309H194L184.255 124.755H179.708L169.97 102.309H175.813L181.966 116.59Z" fill="white"/>
</g>
</g>
</g>
<defs>
<linearGradient id="paint0_linear_13581_1661" x1="76.1487" y1="15.7197" x2="40.7277" y2="53.9884" gradientUnits="userSpaceOnUse">
<stop stop-color="#DD6C43"/>
<stop offset="1" stop-color="#E04040"/>
</linearGradient>
<linearGradient id="paint1_linear_13581_1661" x1="155.215" y1="-10.781" x2="48.1761" y2="104.864" gradientUnits="userSpaceOnUse">
<stop stop-color="#DD6C43"/>
<stop offset="1" stop-color="#E04040"/>
</linearGradient>
<linearGradient id="paint2_linear_13581_1661" x1="156.594" y1="34.6081" x2="121.173" y2="72.8768" gradientUnits="userSpaceOnUse">
<stop stop-color="#DD6C43"/>
<stop offset="1" stop-color="#E04040"/>
</linearGradient>
<clipPath id="clip0_13581_1661">
<rect width="194" height="125" fill="white"/>
</clipPath>
</defs>
</svg>
